<svg xmlns="http://www.w3.org/2000/svg" viewBox="0 0 512 512">
  <rect width="512" height="512" rx="100" fill="#3D9E8F"/>
  <path d="M256 80c-28 0-52 10-68 28-12 13-18 29-18 46 0 14 4 30 10 50 8 26 14 54 14 80 0 16 6 28 18 36 10 7 22 10 34 10 8 0 16-2 22-6 6 4 14 6 22 6 12 0 24-3 34-10 12-8 18-20 18-36 0-26 6-54 14-80 6-20 10-36 10-50 0-17-6-33-18-46-16-18-40-28-68-28z" fill="#fff" opacity="0.95"/>
  <path d="M256 100c-22 0-40 8-52 22-10 11-14 24-14 32 0 10 3 24 9 44 8 28 15 58 15 86 0 10 4 18 11 23 7 5 16 7 25 7s18-2 25-7c4-3 7-7 9-12 2 5 5 9 9 12 7 5 16 7 25 7s18-2 25-7c7-5 11-13 11-23 0-28 7-58 15-86 6-20 9-34 9-44 0-8-4-21-14-32-12-14-30-22-52-22z" fill="#2D8B7A"/>
</svg>
